/* XPM */
static char *_dcd169cbaa24412900a1471c0e71d9dHDGbT0nQ3Y3jH3f1[] = {
/* columns rows colors chars-per-pixel */
"32 32 55 1 ",
"  c None",
". c black",
"X c #0A0A04",
"o c #0B0C05",
"O c #0C0C05",
"+ c #0C0D05",
"@ c #0D0D06",
"# c #0E0E06",
"$ c #0F0F06",
"% c #0F1007",
"& c #18190A",
"* c #19190B",
"= c #191A0B",
"- c #1A1A0B",
"; c #1A1B0B",
": c #FEE760",
"> c #FEE761",
", c #FEE762",
"< c #FEE763",
"1 c #FEE861",
"2 c #FEE862",
"3 c #FEE962",
"4 c #FEE863",
"5 c #FEE864",
"6 c #FEE865",
"7 c #F4F969",
"8 c #F5F969",
"9 c #F5FA69",
"0 c #F6FB69",
"q c #F6FB6A",
"w c #F7FB6A",
"e c #F7FC6A",
"r c #F8FC6A",
"t c #F8FD6A",
"y c #F9FD6A",
"u c #FAFD6A",
"i c #FAFD6B",
"p c #F9FE6B",
"a c #FAFE6A",
"s c #FAFF6A",
"d c #FAFE6B",
"f c #FAFF6B",
"g c #FAFE6C",
"h c #FAFF6C",
"j c #FAFF6E",
"k c #FAFF6F",
"l c #FAFF70",
"z c #FDFFB6",
"x c #FDFEB7",
"c c #FDFFB7",
"v c #FDFEB8",
"b c #FDFFB8",
"n c #FDFFB9",
"m c #FDFFBA",
"M c #FDFFBB",
/* pixels */
"             ......             ",
"          ...qfffffX..          ",
"        ..qfffffffffffo.        ",
"       .qffff1>>>>>fffffO       ",
"     ..qff>>>nnnnnn5>>fffO.     ",
"    .efff>nnnnnnnnnnnn5ffffO    ",
"    .fff>nnnnnnnnnnnjjf1fffO    ",
"   .qff>nnnnnnn5>cnjfffc5fffO   ",
"  .qff>nnnnnnnn1>njffffcn5ffeO  ",
" .qff>nnnnnnn5>>>>>fffcnlf1ffqO ",
" .ff>nnnnnnn5>>>>>>>fcnlfff1ffO ",
" .ff>nnnnnn5>>>>>>>>>jjffff1ffO ",
".qf>nnnnnnn>>>f1>f1>>fffffff1fqO",
".ff>nnnnnnn>>>f1>ff1>fffffff1ff%",
".ff>nnnnnnn>>>f1>fffffffffff1ff%",
".ff>nnnnnnjf>>1>>11fffffffff1ff%",
".ff>nnnnnjfff>>>>>>1ffffffff1ff%",
".ff>nnnnjffffff1>f1>1fffffff1ff%",
".ff>nnnjfff11ff1>f1>>fffffff1ff%",
".ff>nnjffcn>>1f1>f1>>fffffff1ff%",
" Xff5jffcnj>>>1>>1>>>ffffff1ff& ",
" .ff>cccnjff>>>>>>>>fffffff1ffO ",
" .fff5njjffff>>>>>>fffffff1fffO ",
"  Offf5ffffffff1>ffffffff1fff&  ",
"   Offf1fffffff1>fffffff1fff&   ",
"    Offf1ffffffffffffff1fff&    ",
"    .ffff1ffffffffffff1ffffO    ",
"     OOfff111ffffff111fff&O     ",
"       Oeffff111111fffff&       ",
"        OOqfffffffffff&O        ",
"          OOOqfffff&OO          ",
"             O%%%%%             "
};
