/* XPM */
static char *result[] = {
/* columns rows colors chars-per-pixel */
"64 64 44 1 ",
"  c #F39C10",
". c #F2C40F",
"X c #A6C711",
"o c #A4C511",
"O c #F0C50F",
"+ c #F49B12",
"@ c #A8C911",
"# c #84A907",
"$ c #88AC08",
"% c #A2C310",
"& c #81A706",
"* c #8BB00A",
"= c #9FC110",
"- c #95B70E",
"; c #90B40C",
": c #9CBE11",
"> c #98BB0F",
", c #F2B711",
"< c #7DA407",
"1 c #F2B011",
"2 c #F29F10",
"3 c #F1C310",
"4 c #ACCD12",
"5 c #79A109",
"6 c #F2A911",
"7 c #F2C010",
"8 c #F1BD10",
"9 c #F2A410",
"0 c #739C09",
"q c #EC8E19",
"w c #6B9509",
"e c #E67F20",
"r c #E4C418",
"t c #B8C519",
"y c #E6851D",
"u c #EAA118",
"i c #EC9C17",
"p c #D0C51B",
"a c #C7B618",
"s c #ADB916",
"d c #5E8A05",
"f c #9BAA13",
"g c #D1A418",
"h c #B3A716",
/* pixels */
"%;=oo%%@X=*;--*%@XXX;;oXoo%o>;;@4XXo>=@:*$*:XX%X:X=**;>-*=oo=%@X",
"%oooo@o%====o%%%XXX@@==o%%%%%o%oXooX44XX%ooXXo%oooo%oo@@=%%==%%=",
"=oooo@%;>>:XooXoX@o=-**-=%%=oX%;;>:=oo@=ooo%>-;--:ooo=@@X:%oo%:*",
";%%=:@X-#w$o;%%=@X*0&<<*=@o%@o-ddw#**-;$%$>*d<#&w0%$o->>**=o;<wd",
"&--;$-*$<5$$<>>;@@o<55<=44Xo:$&005&*$#&#*<*#0<#&55$<*$#&&#>-5500",
"$$&##*#<<<$*&&#&:>>#<<*-o@%$<&&&$*;**#&&#$*###$#<<$#&&#<<#$&#&#$",
";##&#$$55<$$$###$&#$$$$**-*5$$###$-#&&&&#$*&<*;#;&*$&#&&$:%**#$$",
";;;$:;:wd&*##0$55$5$-*;=;:ww#5$&<555*0<#;*$*wd##>*o*wwd&-4@X4>=;",
"oX@:X%o0w$-;>$>*w#0--%>==X&###sfs-f==-*-%o**#w&%=%@:*<0;o@4o%Xo%",
"o@@oXoo::%@@oo%o-;>=%44Xttprrr33OOrrrpttXo:::-=4XoX@X%%:=%o%=%oo",
"%@@oo@X%%Xo@oo%======XtprO..OOO.......Orpt%=%=%%%%%=%XXXooX@%=::",
":oo%X@XooooX=-;-%o%=tpO......OOO..O...O..Opso%%:--**:4:X:X@o-;$-",
"-Xoo@@X%:X:@>$-o44tpO.3.3.O.37788873OO.....rp:>>-*#&$*&o#%@@*#&#",
"*>;oX%o;>o$=-&*-4tr...OO.7,1692222961,7.O..O.rs&####&&&*&-X=>&#&",
"<#&;-=>$;;<#&&5&sr..OO.8192 22 +++22  918..O..rs>$*:&;%-;0<;=;&-",
"-=;>=%-<$#&#;;*f7O..O712 ++98,2++2,89++ 217O..3Op::o-oX@:5$=@o*@",
"Xo=4XXX%-;;>%ot3..O.,9 +  +6.82  28O6+    9,.OO.Ot%XoXX@%%@%@X=X",
"oooXooo=%%%ootr..O312++++ +6382  28.6+     213..3rt%%o4@%XXX@@@o",
"=X%o%X44XoX@4r..O312+    2 6382 +28.6+++   +213OOOro;#&-XXooX4o;",
"%o=o=@4%:@oop.3.O12+ 6,,,,,8.3,,,,3.8162   ++213O.3p$0w-%XX%%=o>",
":>=o;@@@=:-trO.O,2   1O.OO...OOO..O...3,9     2,O..r-$#&$@X-=:$$",
"#**;&>:>*<#p..O79+   ii1.OO8uiiiiiiiu1.O89    +97OO.a&<&$-;&--&&",
"$*$&&$<#$<fr.O.1     qeu.3.1eeeeeeeeey,OO,2     1...rs>*$5<0<<<5",
"@oo&*;w5#$a..O82+    qq6OO.,qqqqqqqqqy6.O36    +28.O.pXoo#:5#*w<",
"%@@:oo-;$;rO3.1  +    +1.OO,       + +1O3O1   ++ 1.OOrt4@X4X==-=",
"o@XoXX@4:tOOO79+ +    +1.OO,         +,O.O1    + 97.OOt@oX4XooX%",
"%@o=XoXXXp.OO, +      +1.O., +     ++28OOO1      2,...p@oX@XX@@:",
"$-;#:-:=%r..O1        +1.OO8666666666,3..76      +1O3.rXXoXoooX$",
";##&#<$$%r..36        +1.O.O3OOOOOO33OO.3,2+  +  +63..r-$oX>%>-;",
"-&#&##$:tr..79        +1.O.7,,,,,,,,,83O89++      97O.rf#%>#>:>=",
">#$-;%:@tOO.82        +1.O.1yyyyyyyyyqi,719      +28..3f5#-*X=X4",
"@>:X@Xo4tOO.82        +1..O1yeeeeeeyyeeq8O,9++   +28..Ofd*@@oo44",
"o>%oXXoXtO..82        +1.O.,++++++++++qy6O.1 +   +28.OOs;%Xo=%Xo",
"=%ooX@o=tO..82        +1.O., +++++++++ quO.79+   +28..Oto%%=%o==",
":%o=%@@$f3..79        +1.O., +          1OOO1+    97O.Ot=$>o%>*0",
";>>:#%-w58..36        +1.OO,       +++  1.O.6+   +63.O7s$w-=#0dd",
"#-**&##$f8..O1++      +1OOO,         ++98.O8i+    1...8f#*;*5555",
"&*$##$#$-8.OO, +       1...,2        29,OO3uq +  2,..O,#&<<&&<<&",
";-$##*5;oa3O.79+     6,8...7,,,,,,,,,,7OO39yq + +97.O.a<0<$&$&-*",
"o@o>$;:%4a7O..1      1.OO...O.OOO.OOOO.71iyq+   +13OO7h0d5<$%$@-",
"@@@=:>:oXa,..O82     2uuuuu6O8uuuu831uiqyeq++  +28.OO,h#<&#>X:X=",
"X4X%%===%s17O..1     qeeeeeq3,yeey,3qeeeyq+     1O..31so====o%o%",
"oXX%o%o@==g,O..79+   qqqqqyi3,qqqq,3iqq++ +   +97OO.,goXX=>:ooo%",
"%XoXo%@X-*f63O.O,2++  +++ +6.82++28O6+ +     +2,..O76sX*%>$:@44o",
"4%o:%-oX%;<g,O...,2+    ++ 916  +2612+      +21OO..1g*@*$-*$=4X=",
"*$$<*#;;*$#hu8.OO312+      qyy+  +yyq+     +213O.O8uf<*$-=%*>%%*",
":%>*:$*<5;%Xg67O..3,2+     +yq+  +qy+     +2,3O..76g<&*>%4@%4oo*",
":@X:o:o&w<X@su13OOO.,9 +    +++++ +++ + + 9,OO.O36us-$*:X@4%%XX=",
"=@Xooo%:->%@oau13...O712 ++          +++217.O..31ua@o==:=%%%=%o%",
"oXo%o@X%%o%o%:hi67O..OO819 ++ ++++  +2918.OOOO76ia%%=oo%%%%%=>-:",
"=oooX4@XoX%%o50h268......7,1692222961,7.....O86ih-;-oX:o%X@%*&&<",
"%%=%:4XX=X:;o5*:a29,3OOO.OO.37888873...OO..3,9ih$$5$=-=%>@@-#&&&",
":**-:@o=;o-#*;*&:au26,3O.O...O....O..OOOO3,6 uh#$$<#&&->*@@X##$;",
"#<&<**:-#$#&$$$<#>fgi26,7.O.........OO.7,62igf<<&#<&<<*$5-->$&&#",
"$5w<&0$<#&#<w00#*#$;hgi 96,8773.33378,69 iua:<05;$*=#;%;$ww-=-$-",
";-0*>=-#5&##505$:*=4>5hgi+ 2996666992 +ugao44>wwX>:@>XX@>0$%@X>@",
"=%:4XoX=**;>%%%oo-X@oo:-fhgu2  +++ iugas%%@@X>&;%ooXoX@@oo@o@ooX",
"oooXooo%%=%ooo%o%=oo%%%oooXtttaaaasss%o%==%%==%%oXoo%o4@%oXX@@@o",
"%o%o%X@4@oo@4:**>:%oX%=oXoo@@=;;;oXoX@4o=>;-:oo%%@o%>>:XXooXX4X*",
"%o=o=X@Xo@%=o*#0$&>@>*$:-o>X%-&ww*%Xoo4;*5d5-X:=5-;$$&$oXXX%%*:5",
";-%o-@@@X=;:;*$&&&$:;5<&&:$*$$#055:o>=>*&<5<$;#*55<*;##$;@o;=;##",
"<$*;$:=>-*$-&&##&&&<&<<5<#&<<&<&$*>;;:#&#$*&<##<&&<&##&&*%-#>-#*",
"&&&&$*$#*$$&#&&&0w5#$$<<##5d5$###*;&##&&#$*$5#$5$#&#<www0<w#<&$*",
"*$$#***;*$$<$&&$00**-$#***5w$$$#&&$#$##&&$*#0;*5$&#&&wddw0w*05$*"
};
