/* XPM */
static char *_ebe563cfd0343a4c595a45868d52071DV1L5mLogeh4HlG9[] = {
/* columns rows colors chars-per-pixel */
"64 64 256 2 ",
"   c #F4CF80",
".  c #81A706",
"X  c #A7C811",
"o  c #A1C310",
"O  c #A2C410",
"+  c #2B0E06",
"@  c #A3C50F",
"#  c #7EA506",
"$  c #A5C710",
"%  c #493B35",
"&  c #85A906",
"*  c #A0C110",
"=  c #8CB10B",
"-  c #A9CA12",
";  c #89AE08",
":  c #96B90D",
">  c #82AA08",
",  c #7BA306",
"<  c #779E09",
"1  c #1F0703",
"2  c #703F26",
"3  c #3D190E",
"4  c #270A05",
"5  c #9ABD0F",
"6  c #683C24",
"7  c #321008",
"8  c #A6C611",
"9  c #A4C512",
"0  c #A15937",
"q  c #91B40C",
"w  c #86AC07",
"e  c #9DC010",
"r  c #89AC06",
"t  c #8CAE09",
"y  c #ABCC12",
"u  c #621A17",
"i  c #36140B",
"p  c #8FB30C",
"a  c #93B70C",
"s  c #623520",
"d  c #502B19",
"f  c #572E1C",
"g  c #623922",
"h  c #6D1C19",
"j  c #4E403E",
"k  c #F5D181",
"l  c #98BB10",
"z  c #4E2717",
"x  c #9E5636",
"c  c #190402",
"v  c #677169",
"b  c #B16E42",
"n  c #D2C088",
"m  c #935836",
"M  c #794228",
"N  c #C85F35",
"B  c #655C25",
"V  c #84492E",
"C  c #1B0C0A",
"Z  c #9C5E3A",
"A  c #8F2922",
"S  c #572919",
"D  c #B5482B",
"F  c #8B4B2F",
"G  c #7D482D",
"H  c #3B4518",
"J  c #581713",
"K  c #74221B",
"L  c #47160F",
"P  c #9B9C80",
"I  c #7B7231",
"U  c #709908",
"Y  c #D96939",
"T  c #2A170F",
"R  c #A8663D",
"E  c #CF6338",
"W  c #A1633E",
"Q  c #432A14",
"!  c #925132",
"~  c #AC6A40",
"^  c #5B331E",
"/  c #84271F",
"(  c #4B551B",
")  c #444C17",
"_  c #525F22",
"`  c #B0C74C",
"'  c #28120A",
"]  c #844E2F",
"[  c #995434",
"{  c #4A2213",
"}  c #933625",
"|  c #D7DAC6",
" . c #656A28",
".. c #6B3721",
"X. c #73462A",
"o. c #AB4128",
"O. c #3E110C",
"+. c #753A26",
"@. c #929077",
"#. c #B2CE33",
"$. c #AFCF13",
"%. c #7E231D",
"&. c #E2AF7A",
"*. c #1C1417",
"=. c #82442B",
"-. c #5E2F1D",
";. c #9B987F",
":. c #B77548",
">. c #5A5048",
",. c #3C2F2B",
"<. c #6A9407",
"1. c #26282F",
"2. c #3D3A10",
"3. c #87AD0F",
"4. c #361B0F",
"5. c #5D4E20",
"6. c #ACC34A",
"7. c #9C7248",
"8. c #D4D7C4",
"9. c #1E1E23",
"0. c #3B414A",
"q. c #6E624E",
"w. c #628406",
"e. c #231207",
"r. c #31210A",
"t. c #904F31",
"y. c #59412A",
"u. c #BB8355",
"i. c #962E24",
"p. c #54551B",
"a. c #C6A86C",
"s. c #B08F57",
"d. c #451E12",
"f. c #A1C315",
"g. c #973F26",
"h. c #30280A",
"j. c #A2BD34",
"k. c #AAC731",
"l. c #8A856D",
"z. c #BD5832",
"x. c #B77046",
"c. c #A5A297",
"v. c #628D06",
"b. c #757C6F",
"n. c #A55E3B",
"m. c #63685C",
"M. c #AC5233",
"N. c #3B310F",
"B. c #8F7C3E",
"V. c #5F6127",
"C. c #4F473C",
"Z. c #C04C2D",
"A. c #742E1F",
"S. c #454306",
"D. c #5B584F",
"F. c #665828",
"G. c #642619",
"H. c #67422C",
"J. c #5A6207",
"K. c #C65832",
"L. c #82A30F",
"P. c #978443",
"I. c #DBB872",
"U. c #C0B790",
"Y. c #DAA674",
"T. c #6E6E63",
"R. c #3D3831",
"E. c #5A6524",
"W. c #8F7C5B",
"Q. c #726E2D",
"!. c #A78650",
"~. c #84735D",
"^. c #412312",
"/. c #C8B986",
"(. c #2E1F1C",
"). c #E5C982",
"_. c #ECC87C",
"`. c #49311F",
"'. c #ABA480",
"]. c #836A51",
"[. c #AB7152",
"{. c #C0AE80",
"}. c #FAE892",
"|. c #637607",
" X c #503A21",
".X c #A17E4B",
"XX c #9E7A43",
"oX c #A7BE4E",
"OX c #B5B2A6",
"+X c #D4DBB1",
"@X c #C6C3BE",
"#X c #E3C279",
"$X c #9BBE16",
"%X c #725F2B",
"&X c #D3A16E",
"*X c #A33726",
"=X c #32373D",
"-X c #F5E08D",
";X c #7A8E0D",
":X c #825F45",
">X c #93B12E",
",X c #B5CB4E",
"<X c #845B37",
"1X c #8D6B42",
"2X c #D1CFC8",
"3X c #89817F",
"4X c #625E5D",
"5X c #574646",
"6X c #2F231F",
"7X c #BDBAB4",
"8X c #BBCC76",
"9X c #C2D379",
"0X c #EECD80",
"qX c #C79469",
"wX c #464119",
"eX c #735642",
"rX c #766A59",
"tX c #BF6542",
"yX c #EFD887",
"uX c #7D7876",
"iX c #829713",
"pX c #44403B",
"aX c #A6C71E",
"sX c #7A4F2F",
"dX c #C97153",
"fX c #ACCA21",
"gX c #BED459",
"hX c #93B713",
"jX c #C79C64",
"kX c #9CB446",
"lX c #AC8977",
"zX c #897538",
"xX c #7C8075",
"cX c #95B010",
"vX c #82683F",
"bX c #C8AB91",
"nX c #90613E",
"mX c #B1654A",
"MX c #A1986A",
"NX c #708408",
"BX c #C9D793",
"VX c #969492",
"CX c #C0C998",
"ZX c #B4965F",
"AX c #7E857E",
"SX c #7F888A",
"DX c #C5B579",
"FX c #6B4D2B",
"GX c #A99B8D",
"HX c #8E8D89",
"JX c #978966",
"KX c #CC856F",
"LX c #E1E1DB",
"PX c #A3836A",
"IX c #A1B373",
"UX c #85A541",
/* pixels */
"f.p * 8 9 o O - $ * = p : a = O X 8 $ 8 q p 9 X @ 9 o 9 l a p X y $ $ 8 l * - 5 = ; ; 5 X $ o $ e X * t = q 5 : ; * 8 O * o X $ ",
"o O O 9 8 X 9 o * * e * 8 O O o 8 X $ - - * * O o o f.O o 9 O 9 $ 8 @ $ $.y X $ O O 9 X X 9 o 8 @ 8 8 O O 9 - - * o o * * O o * ",
"* @ 9 O 8 X O q l l e X @ @ $ @ 8 - 8 e : = ; a e o o * O X o = a f.k.e X 8 X e 9 9 O o l : q a : 5 @ @ @ * X X X 5 O O 9 O 5 = ",
"p o o e 5 - X : > <.w 9 q o O * X X ; < . # # 3.* - @ O - @ $XUXIXP q.S.|.L.p 3.f.3.: = v.# & . <.< f.3.9 : : l t = * 9 q L.v.w.",
". q : a r : = ; # < w r # 5 l p - - O # , < # e y $.$ @ aX6.U.xX5X^ X.2 s Q ) w.t # = > U , & . < < w , t r & . . & l : < < U U ",
"r r . > & t & # , , ; t # . & . 5 : l . , , = a @ X aX6.U.uX% g m :.:.Z :.W 6 Q S.NX; > & & r & , , w > # . & # , > ; . & . > w ",
"p & & . & r w , < # r r w > & > w . & w t r w ; p 6.CX3X% 6 m W x.Z 2 S V W Z b ] Q S.w.# p p > a . = r . & . . 3.e O = t & r r ",
"q hXq w e a e <.w.. t & > < w < < ; , r a = q aX8Xc.5X^ Z :.R 6 z + c c c 7 { ] b b X.Q ) w.3.> l t @ = v.U v.L.hX$.- $ y : * q ",
"8 $ fXoXiXiXcX< <.3.q q l 3.l = U > < : : o 6.CXuX`.G ~ R X.3 1 C 6XpX>.R.T c 1 { ] b W ^ h.w.f.* O - 5 = # < p 8 - y @ O X 8 o ",
"O - BX3X' ^.N.) NXl y - 8 8 O @ : q 5 * o gXCX>.f Z ~ ] d.1 e.R.D.v v v v m.C.(.c 1 z m b G Q NX9 $ $ - $ o o 5 * o @ o * o O O ",
"o fX+X4X3 m W 2 ^.S.;X8 $ 8 O * * * * f.9XOX% 6 m Z 6 + C R.4Xv v v v v HXb.v m.C.T c 4 -.R Z Q J.5 O * o 8 8 8 8 9 $ - O * $Xe ",
"5 fX+X>.3 Z b ~ ] ] Q J.t : q : o 9 f.9XOX,.6 :.W z 1 (.D.v v v v v v ].:XuXb.v v m.R.C 1 S R R d J.r t e - 5 8 e 8 X 9 a q w a ",
"hXgX7XT 3 Z b ~ m :.~ d N.NXl 9 y y 9X7X,.s :.R S 4 R.m.v AXVXAXv v rXM.A d.,.D.v v v >.T c { m R d ( # r = L.9 > f.- X t & # & ",
"= 9X7XT i m x.~ m :.x.G 2 h.NXl y gX@X% z b R z e.pXv v AXuX0.SXSXT.M.*Xi.h 4.T.xXb.b.b.T.,.c 3 ! W ^.J.. . . = # : X * : . > # ",
", oX2X,.i ! b ~ m :.b G ~ ] r.|.j.8.4Xi ! W S ' D.b.b.xXv 1.*.0.SX[.*XA A J D.P P P ;.;.P @.j c 3 ] m r.|.a o a p < # q e q . a ",
"a #.| j 7 ! ~ ~ m x.x.G ~ x.6 r.c.VX' M F z ' q.P P ;.T.1.*.*.9.0.3XV %.h Q @.P @.l.P P P P @.% c z b ] N.cXX - $X< 3.e - 9 = - ",
"9 fX+XD.7 ! b b m x.:.G W b ! G ,.(.{ x +.+ >.;.P P T.1.9.*.*.*.9.0.T.f 4 >.;.].Q ,.b.P P P P @.,.1 2 b ^ J.$ - O o X o - $ f.$ ",
"9 aX+X4X7 ! b b ! b b ] ~ b ] b 6 4 =.t.3 R.@.P P l.1.C C 1 1 1 c C =X4X(.y.H.u L C =X@.'.'.'.'.l.T + ! W r.iX- O $ $ X - - - @ ",
"* fX+X>.7 ! b ~ F b R V ~ b ] ~ Z ^.M -.4.l.P P @.pXc 1 L K A.K J 4 C =XD.4.J A u ^.q.{.n /.n /.n ].c { ~ 6 S.p X $ 8 8 X y 9 a ",
"* #.2X,.i ! ~ R =.R 0 G R ~ ] R W G z + q./././.m.C 4 u D N z.N z./ 7 *.0.pXG.K S W.n n n n n n n {.`.1 V R 4.;X9 $ $ o O e @ l ",
"l ,X@X(.3 M [ n.=.x 0 G R R ] R Z m X.6Xa.n n MX6X4 K D Y Y z.E Y K./ 4 9.0.,.S 1X/.n n n n n n n n W.1 { R 6 S.& X $ a * 5 ; w ",
"& 8X7XT 3 M ! x =.x 0 G R R G 0 m m Z y.DXn /.>.1 u D E dXdXKXKXKXdXZ.J C 1.0.eXI.0X0X0X).).).).).).I.Q 4 t.Z r.;Xl q . a a . # ",
"& ` @XT 3 t.0 x =.x 0 V W R G [ t.] b H.'.n JX*.L *XK.m ;.c.VXc.@XbXE } 7 *.=XrX#Xk                 k 1Xc s b d J., , < , # , , ",
"- ,X2X,.i ! 0 x =.x 0 V W n.M [ F V x.X.MX/.pX7 } K.N M W.j C 6XW.u.Y D u 1 9.=X~._.                k a.' 3 m 6 2.L.$X, > 3.U # ",
"o #.| j i ! 0 x =.x 0 G Z 0 M [ F =.~ X.JXJX*.u K.E N M 7.>.,.R.7.mXE N } O.C 1.>.I.                  _. Xi t.M r.cXy X * e hXe ",
"@ #.| 5Xi ! 0 x =.x 0 M [ x M [ F M 0 6 W.C.7 } Y E N M 7.% e.6X1Xn.E E z.u c 9.0.ZXk                   vX4 V ! 4.;X$.$ @ @ 8 f.",
"o #.| 5Xi ! XXP.] [ x M ! x 2 [ F M n.2 q.6Xu D E E N +.~.% T 6X].W N E E A 1 *.1.rX_.                k s.4 +.0 d.|.- X $ - - e ",
"r j.8.5X7 -.B.MXc.lX<XX.G G g M 2 s V 2 C.i / E Y N z.6 @.@.l.l.;.MXtXN Y o.O.C 9.0.W.#X              k I.4.-.0 S ( $ @ @ O X t ",
"p >X8.j + 3 V.m.HXPXm Z n.Z Z m m ] V M 6XO.i.Y Y E z.S j % % C.C.y.x N Y D J 4 *.1.q._.                #X`.{ x ..2.* 5 o l a q ",
"a >X8.j + i e.T 4.-...M V t.[ x 0 0 n.[ i S Z tXY E N g.A.G.d.G.G...N N E tXA.+ C 1.C.a.k               0XFX+ =.s h.t w 5 e 5 e ",
": >X8.j + d.3 + 7 f i 1 + 7 4.d.z f ..s 4 y.'.a.x.N E N z.K.g.g.D K.Y z.qX2XrXi 1 *.1.].0X              k vX4 =.6 r.L.p X * X y ",
"X k.8.j 7 g 6 -.4.2 f i 3 3 7 3 i 4 + + 4 O.:X{.{.mXN N N Y M.N Y E E lXLX@.{ J + C 9.C.a.              k .X1 +.2 r.& y 8 9 y $.",
"@ j.8.j i 2 F ] 4.+.t.d s 6 d s f { S d.O.J L :X{.U.dXK.N Y M.N Y N [.@XOXs %.h i c 9.1.C.I.            k s.1 -.=.T L.$ * O $ 9 ",
"* k.| j i V 0 [ 3 z n.6 g 6 f 6 g ^ 2 d O.u K G.:XU.U.mXK.Y M.N Y W @X7XH.} } K 3 1 *.9.9.ZXk           k jX4 S V T iX@ o @ * e ",
"e k.8.j i F 0 [ { i ! ] ^ 6 f 6 g ^ 2 d O.u %.o.A.~./.bXx.Y M.N tXGX2XeXA.Z.} K 3 1 ' 1.R.DXk         #X_.a.' S V T ;X$ O l 3.< ",
"q k.8.j 7 F 0 x f + +.Z s 6 d 6 g ^ 2 d i u K o.D -.~.U.bXdXM.z.lX2X~.{ D Z.} K L 1 Q W.DX}.yX        u.u.a.T z F T ;Xf.> < v.w.",
"> j.8.j 7 V 0 0 ..i { 0 X.s d 6 g ^ 2 z 7 u K *XZ.g.s l.U.bXm 7.OXGXS g.Z.D A %.L 1 `.yX}.-Xk       _.&.[.s.T S F T NX= , , , , ",
"# j.8.j 7 M 0 x 2 { 7 F m f d 6 g f 2 z 7 u K *XZ.o.g.H.@.U.l.c.OXy.} D D *X/ K L 1  X-X}.-Xk       u.qX[.nXe.S F ' |.> . # # . ",
"p j.8.j + M 0 x 2 ^ + s n.^ z 6 g f 2 z 7 u K i.Z.o.D g.H.l.c.7Xq.G.D D o.i./ h L 1 y.-X}.}.-X      I.u.:.G 1 -.V ' |.> w . a = ",
"O #.| j 7 2 x x 2 6 3 d.[ 2 4.6 g f 2 z + u h i.D o.D Z.A.~.OXl.d o.Z.o.i.A K u 3 1 F.yX).}.}.yXk   #XW t.G 4 -...e.|.3.f.3.- : ",
"$ #.| j 7 M 0 x 2 6 z + =.F 3 g g f 2 d 4 u h A o.o.D D mXc.;.y.PX[.D o.A %.h u 3 4 vXa.7.yX#X-X_.    u.F S 1 f z e.w.$X8 5 8 e ",
"$ #.| j 7 V 0 x 2 6 g + -.[ f s g f 2 d 4 J h A i.} o.M.GX@. Xg {./.tXo.A K h J i 7 1X!.7.a.7.a.7.I.I.jX=.L 7 s 3 e.iXO 9 o 9 o ",
"@ #.| j i F 0 x 2 6 6 3 3 t.+.^ g f 2 d 1 J h / A / } lX;.H.7 L :X{.a.M./ h K g d  XX.sXsX<XH.H.H.X.nXnX+.3 3 6 3 e.< e 8 O @ o ",
"* #.| j i F 0 x 2 6 2 z + +.g.-.g f 2 d 1 L u / i./ ].@.eXL h h z ].'.W.A.h G.5.y.d .X7.XX.XsXFXX.g ^ d d 4 { g i e.U e - y y 9 ",
"- k.8.j i F 0 x 2 6 2 f + S g.-.^ f 2 ^ 1 L u %.A G b.q.3 h %./ h z ~.xXeXG.L Q ^.d.!.nX!..X!.1Xs.:Xs.<XXX' z s 7 r.< t * $.X * ",
"; >X8.j i F 0 x +.6 2 f 7 3 g.A.d d g f 1 O.u K +.T.q.^.L / K / A L `.m.T.F.wX( ) Q vXFXG G <XsX<Xg <Xs g 1 f ^ 4 h.a p l o o ; ",
"e k.| j i V W W X.g g f { { ....s ..+.A.+ 7 u G.q.T.`.O.u %.h %./ h O.% m.F.) ( ( ( E.5.H.FX%XB Q.V.5.^ X.4 -.f 1 2.* O y 9 9 = ",
"l #.8.j 3 s ~.xX4X>.} } } } } } i.i.i.i.O.+ J g eX Xi u u h J h K u J 7 y.g d.^.N.) ( p.p._ _ _ E. .p.z f 4.s d c S.X 9 o X 8 * ",
"e #.8.j 3 d D.0.0.5XA A A A A / / %.%.%.7 4 ^.6  XT J h u h J u h u h O.4.g Q N.2.H H H ) ( ( ( _ E.V.5.5.d g { c p.O o * o 9 O ",
"O #.8.j + 3 ,.=X(.L L O.O.7 7 + 4 + ' ' 1 ' 2.wXr.7 h h u h J J h J u u r.2.H H H H H H H H H H ) _  . . .5.6 3 c J.8 o * l : $X",
"e aX+XVX>.j % % D.3X3XT.C C h.r.N.) H 2.wX%XvX%Xp.p.%X7.[.n.V M +.-.f 5.V._ p.) ) ) H H 2.N.Q Q N.) ( V. . .5.i c |.y o = . . , ",
"o * k.gX8X9X8X8X8X+XLXOXC h.p.V. . .V.) V.I 7.zXzX.Xs.jX&.&.&.Y.Y.&XqXs.!.P.P.P.P.P.I  .p.wX`.Q Q wXH ) ( E._ h.c J.- a & . . . ",
"5 t t a 5 - $ o q 9 BX@X(.h.) ( ( _  . .%X1XB.7.u.u.:.u.qXY.&.&.&.&.&.&.&.&.&.&X&XjXs.P.I  .E.E.V._ _ ( ( E.E._ r.S.9 X > & r p ",
"& , # # = = 5 : & = CXHXT e.2.H H ) _  .Q.Q.I XXu.u.R [.u.qX&X&XY.Y.Y.Y.Y.&Xs.B.B.B.B.zXzXI Q.Q.Q. .E._ _ _ _ V.N.e.J.t ; . . & ",
"r , U L.. < 3.# . oXc.' 7 d.s X.X.sX%X .Q.I I I I I I I I zXB.XX.X.XXXXX!.ZXs.!.!.P.zXI I I I I I Q.F.y. Xy.^ 6 s z + S.: : r : ",
"p hX< = l e hX> < BXuX1 3 z s ..6 +.6 5.5.5.5.F.F.B B B F.B B B B B B B B %XB B B B B B B B F.F.F.g -.-.^ s -.-.g s 3 T cXX 5 - ",
"e o 5 y $ 8 X * t 9Xc.' 1 4 4 + + + 4 4 4 4 + + + + + + + + + + + + + + + + + + + + + + + + + + 4 4 4 4 + + + + + + c 2.$X$ @ $ ",
"9 O 9 $ 8 @ 9 o * k.BX;.>.j % % % % % % % % % % % % % % % % % % % % % % % % % % % % % % % % % % % % % % % % % % 2.2.p.& y - - 9 ",
"o 9 o 9 O $ - y X @ aX#.gX6.>X>Xj.oX6.` ` ` 6.` ` ` ` ` ,XoXkXkXkX` ` ` ` ` ,X` 6.oXkXoX6.` ` 6.6.` ` 6.j.j.j.k.f.* @ $ 8 y X = ",
"f.9 * @ * $ - 8 @ X O e O = > U r . : X 5 = 3.$Xa 9 : X o a . <.<.= o $ @ @ y p = , v.< : X 5 o < : q 3.r . w @ $ X X o o = $X< ",
"q : O 9 a X - - 8 e q $Xp ; r . . . w 5 p < , . . 5 r = w w & < < , 5 9 5 * : ; . # < , ; q & = < , # ; q & > ; q - 8 q o hX. > ",
"# ; ; p & $X* l : = r a . . & & . . . # . , , , # > . # , . # . w ; : p q 5 & . > r = . # . & # . . , . & & # # ; o a & : : & t ",
"# . . . w t w & t r r . > . . . U <., & w w # , & & < v.< r & > w ; q . > > . . & w = 3., & r , 3.> . > , <.U U U # <.& # . r t ",
"= w w & = = t q = r r # w . . ; U U = = a ; . = = t < <.3.t w > . . r & ; & > . . r ; & < p t < w . > > . <.v.v.<.U U ; U < t t "
};
