/* XPM */
static char *be249a64f21340dffeec6f67792dc90clibSDtyxRSqTkOsp[] = {
/* columns rows colors chars-per-pixel */
"32 32 188 2 ",
"   c None",
".  c #4D250E",
"X  c #5F2D14",
"o  c #5A2D1B",
"O  c #5F3014",
"+  c #5C3A1F",
"@  c #622C14",
"#  c #633213",
"$  c #6B3514",
"%  c #64331B",
"&  c #6A351D",
"*  c #6C391C",
"=  c #6B3B15",
"-  c #72361B",
";  c #743B1C",
":  c #7A3D1D",
">  c #6F3B21",
",  c #743B20",
"<  c #7B3D20",
"1  c #67481A",
"2  c #7C421E",
"3  c #416E1F",
"4  c #754325",
"5  c #7C4423",
"6  c #7C4F23",
"7  c #7D4929",
"8  c #625921",
"9  c #765724",
"0  c #4B6A22",
"q  c #5B6021",
"w  c #4D7B24",
"e  c #567B24",
"r  c #5A7E26",
"t  c #5D7529",
"y  c #5A7E2B",
"u  c #557C34",
"i  c #626827",
"p  c #656D2A",
"a  c #657D2B",
"s  c #667629",
"d  c #797A30",
"f  c #823D1E",
"g  c #86441E",
"h  c #8F481F",
"j  c #8D471E",
"k  c #834322",
"l  c #8C4522",
"z  c #844925",
"x  c #8C4922",
"c  c #844B2A",
"v  c #894C29",
"b  c #914621",
"n  c #924B23",
"m  c #9D4D25",
"M  c #964F29",
"N  c #9B4F28",
"B  c #8C5728",
"V  c #8C5B2C",
"C  c #855D2A",
"Z  c #975126",
"A  c #9F5126",
"S  c #93542B",
"D  c #9D542C",
"F  c #8F5B35",
"G  c #975D34",
"H  c #A24F26",
"J  c #A04F28",
"K  c #A35127",
"L  c #A35329",
"P  c #AC572B",
"I  c #A65B2E",
"U  c #AD5B2D",
"Y  c #B35C2D",
"T  c #A75D30",
"R  c #AC5E31",
"E  c #B35F31",
"W  c #84712F",
"Q  c #8C6B33",
"!  c #9E6739",
"~  c #9A6B37",
"^  c #8D7037",
"/  c #8C7A37",
"(  c #817D32",
")  c #977137",
"_  c #9B7B3B",
"`  c #98773B",
"'  c #A56B3C",
"]  c #A76838",
"[  c #B56534",
"{  c #BA6534",
"}  c #BC6A36",
"|  c #BD6C3A",
" . c #A5763F",
".. c #A8753E",
"X. c #C16B37",
"o. c #C26E39",
"O. c #C5713B",
"+. c #C8743D",
"@. c #937A4B",
"#. c #AA6F40",
"$. c #AD7442",
"%. c #A57D40",
"&. c #AB7B42",
"*. c #B27745",
"=. c #B47A46",
"-. c #B97E49",
";. c #5B8027",
":. c #5E822B",
">. c #5A8930",
",. c #64872D",
"<. c #679228",
"1. c #6B8D31",
"2. c #658832",
"3. c #7C8432",
"4. c #768935",
"5. c #6E9035",
"6. c #66923C",
"7. c #729435",
"8. c #7C9A37",
"9. c #719339",
"0. c #7C9C3C",
"q. c #7F943B",
"w. c #789D42",
"e. c #858C35",
"r. c #838D39",
"t. c #8C893A",
"y. c #888437",
"u. c #93843B",
"i. c #938939",
"p. c #859C3B",
"a. c #8A9D3D",
"s. c #889338",
"d. c #98913F",
"f. c #83A33E",
"g. c #8BA23E",
"h. c #8CAB3E",
"j. c #80A034",
"k. c #93A43F",
"l. c #9E8440",
"z. c #939A40",
"x. c #9C9842",
"c. c #969441",
"v. c #879556",
"b. c #A48D43",
"n. c #AA8847",
"m. c #BC814B",
"M. c #BC8C4E",
"N. c #B6894A",
"B. c #A19945",
"V. c #AD9748",
"C. c #AA9547",
"Z. c #B6964C",
"A. c #A18959",
"S. c #A1815A",
"D. c #83A342",
"F. c #88A541",
"G. c #8CAB43",
"H. c #96A845",
"J. c #94B247",
"K. c #8AA95E",
"L. c #97AB5C",
"P. c #829B64",
"I. c #AC9664",
"U. c #A69F64",
"Y. c #B29C6B",
"T. c #ABA96F",
"R. c #A6BA6E",
"E. c #A0AB70",
"W. c #B5BF7E",
"Q. c #C98D53",
"!. c #C58B51",
"~. c #CC9355",
"^. c #C69352",
"/. c #C2AD7B",
"(. c #C5B07F",
"). c #BAAA83",
"_. c #CDB988",
"`. c #BCC992",
"'. c #D7C493",
"]. c #DDD9A9",
"[. c #E5D4A5",
"{. c #E8D7A7",
"}. c #EDDDAD",
"|. c #E7DAAD",
" X c #EFE3B1",
".X c #F5E6B6",
"XX c #E6E5C3",
"oX c #F5E8C2",
/* pixels */
"                              f.                                ",
"                    r e e j.  8.;.e :.9.h.                      ",
"                w.7.j.r 7.G.  j.:.r 7.G.2.:.                    ",
"                9.5.0.  z./ g.7.r.3.a r.0.0.D.                  ",
"              f.5.:.D.s.Z.H.p.8.a u.M.z.a 1.f.                  ",
"          1.h.  ,.s C n.a.~.' ^.~.b.Z.' N.V a.r f.8.            ",
"        f.5.  1.t.! m.=.) v * 4 4 5 G ' =.*._ 1.  f.8.          ",
"      G.f.G.  e...=.' ; @ X X . . @ - $ 5 ' *.d.W J.D.h.        ",
"      D.  F.e.u.m.S - - $ - $ . . : k f k : ] b.b.G.  D.        ",
"        e   y.a.G l l l f k : X O l D m D M k t.c.i.r ,.        ",
"      0.8.r.&.~ x T L L b n g # # n U P [ R m B $.t.3.0.        ",
"      G.r ) ' S I } Y U m J M $ $ m { [ O.X.R N ' ~ d           ",
"      f.3.' -.& z O.E M b L M $ $ A } L ] O.[ * F $.Q f.        ",
"        J.V.m.% > k : - - : x $ $ l : ; 2 2 5 % c N.k.g.        ",
"        f.` $.% 5 v , & & k n $ $ N z & 4 c v & 5 ' 8.F.        ",
"        e.&.$.% c O.Y L m K n $ $ m Y U | +.[ ; 4  .` g.        ",
"        y.x.u.: T X.Y Y m N j $ $ N Y Y X.+.Y L 6 k.%.g.        ",
"      G./ x.M.: { X.P Y m N j $ $ N Y Y O.+.{ K v B.%.p.        ",
"        s.B.&.; I X.P U 2 k n $ $ N Z k X.+.U N 5 V.i.          ",
"    f.f.p.$.$.; [ X.P Z % - : $ $ n % * D O.Y N 5 #.c.p.f.      ",
"  F.  G.  -.*.: I X.Y x g 5 - $ $ g 2 S v O.U N z *.' p.  G.    ",
"      G.  Q.Q.: [ X.Y U : k x $ $ N x k X.O.{ H v ~.-.a.  G.    ",
"    G.  ( *.$.; I } Y Y m H n $ $ A Y Y X.o.Y n 5 $.%.p.  G.    ",
"      G.7.l.$.% 5 } A l b N n $ $ K U n Z [ U & 4  .p.q.G.      ",
"        t %.$.% % * - ; * - g $ $ n * * 5 : * o 5 $._           ",
"      3 0 n.!.% c D < & : l h $ $ L n , 4 S M % 7 -.$.          ",
"    u P.w _ $.% 9 } K Y H H h $ $ L Y Y } O.U - 5 *.Q           ",
"    `.oXR.s.` 8 s I l N l l g # # m A m R D V 9 6 ^ s       6.  ",
"  K.|..X XL.:.0 ;.1 $ $ $ $ # # # $ $ $ $ = q <.i p t >.XX|.W.  ",
"  [.{.}.'._.T.v.w.).S.# # # # # O # # # O + E.R.y v.T.].[./.U.  ",
"  @.A.I.Y.A.I.I.  _.Y.                      '.(.  /.            ",
"                                                                "
};
