/* XPM */
static char *b59fa5ef73114a5bdbd02d2f98501ab9ELV2EQbR2XAokM1z[] = {
/* columns rows colors chars-per-pixel */
"32 32 86 1 ",
"  c #515F1C",
". c #4F6115",
"X c #516216",
"o c #546A17",
"O c #596B17",
"+ c #53631A",
"@ c #566E19",
"# c #596F1B",
"$ c #57701A",
"% c #59711C",
"& c #637E1C",
"* c #4B4E2B",
"= c #4E5922",
"- c #4C512D",
"; c #535C2A",
": c #4C5232",
"> c #505330",
", c #5A6D23",
"< c #59672D",
"1 c #5B7323",
"2 c #5E6B36",
"3 c #57603D",
"4 c #657E22",
"5 c #666D4D",
"6 c #696F4D",
"7 c #697441",
"8 c #6B744C",
"9 c #6A6F51",
"0 c #6A7051",
"q c #757B59",
"w c #64801C",
"e c #6F831D",
"r c #70861E",
"t c #73881E",
"y c #6F8220",
"u c #718522",
"i c #748922",
"p c #798E23",
"a c #74862A",
"s c #74882A",
"d c #728334",
"f c #778244",
"g c #7D845D",
"h c #839423",
"j c #899623",
"k c #879A23",
"l c #8B9924",
"z c #8D9A2A",
"x c #849045",
"c c #929C4C",
"v c #81875D",
"b c #83895E",
"n c #8E9A57",
"m c #919A59",
"M c #91A359",
"N c #848A61",
"B c #8D9263",
"V c #919665",
"C c #919D64",
"Z c #959C65",
"A c #979F65",
"S c #989F63",
"D c #999F67",
"F c #9A9F6B",
"G c #9A9F6C",
"H c #9C9F6D",
"J c #95A061",
"K c #99A062",
"L c #9AA166",
"P c #9BA16A",
"I c #9CA269",
"U c #9BA26E",
"Y c #9CA06E",
"T c #9EA271",
"R c #A0A272",
"E c #ACAE7B",
"W c #B5B982",
"Q c #B6BB84",
"! c #B5BE85",
"~ c #B8BD85",
"^ c #B2B98A",
"/ c #BABA88",
"( c #B9BC89",
") c #BEBE88",
"_ c #BBBE90",
"` c #BDC08D",
/* pixels */
"r@#9@Xe@e@$+eXe@e@$+eXe@e@$+eXe@",
"X&PPPP@eX&@r$&@eX&@r$&@eX&@r$&@e",
"ueeb86&+ueear#X+ueear#X+ueear#X+",
"rrUPP#PLrr@@X$j#rr@@6Pj#rr@@X$j#",
"#rLPP%PN#i+%@r$+#i+%PP$+#i+%@r$+",
"&ehe@j&@&ehe@j&@&ehe-l&,&ehe@j&@",
"+uol$#Xjrrol$#Xj+u+PPPI6PvM&$#Xj",
"&@+u)Fqs&GS2v&wr&@+PPPPqPBPA@&wr",
"ro$XLVePrPPgP9e@eo$X~PDPoP8XrXe@",
"X&$u$=#eXe#h-&@eX&$hPPPPXPLu@&@e",
"ureprQPvCgBcr,.XureeO&4eurepr%.X",
"rt@@omjNPPPPXul#rt@@o%l#rt@@o%l#",
"#u+@@r1+@/PVPx%+%u+@@r1+%u+@@r1+",
"&thr$l&@&PPrLj&@&thr$l&@&thr$l&@",
"Xu j@#+jXu j@#+j`u6lTJYjXu j@^Yj",
"&@+r#&&r&@+r#&&r&N+eUw&r&@+r#&&X",
"r@$+eXe@e@$+eXe@e@$+eIe@uP!PeXeu",
"X&@r$&@eX&@r$&@eX&er$&PeP4$r$&@r",
"ueear#X+ureurqg&a&gsr~+bseesr#X#",
"rr@@X$j#rrPW8PPSruPPLAkLrrNbL%j&",
"#i+%@r$+#i+-4r-y*=-**&%-:t5>-r$+",
"&ehe@j&@&ehePP(P&PPPv0Pv&tKe@j&&",
"+uol$#Xj+uolL4eP6PGNF3Pj+eMl$#Xr",
"&@+u%&wr&@+u%&w<&YKdNP&r&@+u%&wX",
"ro$XrXe@eo$XrXe@ubPPrPe@eo$XrXeu",
"X&$h%FfII&$u@&@&+26u@&@eX&$hI&@r",
"uree7PPParepr%.XurPpr%.XureenP.#",
"rt@eX;z*rt@#o%l#rd9@o%l#rt@@-8l&",
"@EPDP@RPIH+PPr1+%u+@@r1+%u+@@r1X",
"&PTPLlPgPv0Pbl&@&thr$l&@&thr$l&&",
"Xu je_NzPs j@#+jXu j@#PPPegPv#+r",
"&@+r@Pv@&0+r#&&r&@+r#@PPPPbPr&&X"
};
