/* XPM */
static char *result[] = {
/* columns rows colors chars-per-pixel */
"64 64 15 1 ",
"  c #A6C711",
". c #A3C410",
"X c #81A706",
"o c #9FC110",
"O c #AACB12",
"+ c #86AB08",
"@ c #8BAF09",
"# c #7BA206",
"$ c #90B40D",
"% c #96B90E",
"& c #9ABD10",
"* c #AFD014",
"= c #719A09",
"- c #648F08",
"; c #568305",
/* pixels */
".@o .o.O o@@%%@.O.  @@  ... %$@OO   %o*&@++&O o & .+@$&%+o .ooO ",
"o....O.ooooo  ..   O*.. oo..o     . *O O. .O  .       OOo..oo.o.",
". .. O.@&&&O . . O o%@@%oooo. .$%&&o  Oo. ..&%$%%o  .oOOO&..  o@",
"$.oo&OO%+-+O@..o OX=X##+oO .OO&;;-+$@$$XOX%$;X+X-=OXO%%&+@. $#-;",
"#%%%X&@@##@+#o&@*OO#### **.Oo+X==#X@@X#+$#@+=#+X#=+#@@XXXX&%====",
"@+XX+@+###@@#X+#o%%X##$% O.X#XXX@@$@@+XX+@@X+X@X##++#X+X#X+#+X+@",
"$XXXX++###@+++++@#++@@++@$$=@@XX+@&+X++XX+@##%$X%X@@+@+X+o @@X++",
"$$$Xo$ -;+@XX=@==$=+%+$.@o--@=@X#=##@=#X$@+$-;+X&+O@;=;X%*  *%.$",
"  O&O O=-+$@&X&$-+-&%.&ooO#+#=@X&$X.o%+$.O@@+;# & O&$#=$OO*.oO .",
".O   ..oo.OO O.O%$o.o**   *Oo%%OOO.  O O  &oo%.*   OO. &o..ooo..",
".OO. O o. .O.  oo.ooo   ...o.   OO    o. .. .ooo...oo    . O .&&",
"& .. O .. . o%@$..ooo..&$. .  *ooo@X$@. .O$#O..&$%@+o*& o O.$$X%",
"%O .OO .& &O%X& O*..OO X$*   . .X+X=X#$%.*XXO%&&%@+X+@#O# OO+XX+",
"$%@O . @&OX %X@&*OoO%o$X$@ O%. %X%$X#+#$o&+%@++#XXXXX##@#&*o&#+#",
"#X#@%o&X%$#+XX##+oXXXXXX## &#&*@%*%+@=@X$$oO&XX+%+@.#$ $$=#$o$X%",
"%.$&o $#+XXX@$@X+;$Oo@$X#@@X+ o. OoO$= %*  *.o@X*&o $O.*o=+o* +O",
"  o*  OO$$$%. .OO@ OoOo$%&%&o*    O %o OooOO O$$ o.    Oo *oO o ",
"...  ..&... ..o...  .o&  . *O*OO ..o. .o.o...o  . ..o *Oo . O O ",
"o . . O* ..O*$#%%&. O&%..o. O$$$$. . OO%%o%&&..o.O  $X#$O .  *.$",
". &.o Oo%O .O@#X@+&O.ooo%o@*.$##@. O  O$##@X+O@ +O&@+=-& . ..& &",
"o%. $OOOoo$.$$+#$+X.%+$@+&X+@$++++  %.%%X#@X+$X%$$+X+@+XXOO$.&++",
"X@@$#&o&@#X%#XXX@X#X++@XX#X#XX$X#+%+Xo#XXX+@X+X#XXX#X###+&$X%%XX",
"X++#X+#X+#XX#X##=##=#XXX##X+##O@@O%X$#@X++% %XX+@+X%X@&@+=#=####",
"* O#@$-=++X+X@+=-;X%%@$+#@@XX@&o.*%o$;o+O. *.%@X*$%O@. .O#.=X@-X",
"oOO&O %%+++$o o. # *o.%+%$@$%O&   O*&% O oO*O.#@O&o . .*OO*O.o%.",
" O    O*&oo....O.& .. .o.&.OO**  . oo  ooo...%%.. ... OOo.O .. o",
".O .     . OO %&o .  oo... O  o.oo .. O o.&oo  .  . o.O .    OO&",
"X%$Xo%&o.  .*+==-#& O oO. oO $==@O  . *$%X+%&O. %*.&+XX O.  ..OX",
"$XXX+#+X. o&%X#---XO&X$%$.#%#-=#++oO.&.XX#++$o+.+$X+XX#$X O%.%$$",
"%XXXXX+o.$@.+%$@+oXX@+$$+$X###X@+%%$%.X@XX$%&$XX@+#XXX+#+ %#&o%o",
"%X+%@ o *&++++Xoo.@@+o*O$ $++++$%.+%@+X###@*OO#.@##X##+@#X%@Oo O",
"*%&OO .O*O.#;;-*O. *+-&Oo $O%$+  o *-#%+##+& O@O$%&XXX@=;$*O .O*",
" %.   . .o%%&&$. ..O&%  ....&o&OO . oOOo%%&O  . oO %&o o$  .oo .",
"o .. O.o ...O Oo OOOO&%ooo.oo  .  .O*O O   .Oo&.O.. .OOO . oo o.",
"o. o.O*+=%&*&o..  %%X##@&..o.Oo##+$@Xo.+O&oo++X$X$ o.$O .X%  &@=",
"%&%o# %--=@&#O o OX=XX#% *  *.#;;-====+=O=&X;@+X-=.# X@$+-%.X=;;",
"X%@$XXX@$#@X#&$+OO*XX#@O**..$+@###@$@X+@@XX##X+XX###$$XX+$%@=###",
"#@@X++@X$@++##X#%@@###$+oO&XXX##XX++++XX++X++XXXXX@#XX+XX##XXX#X",
"$%XXX$=$O.&.+@XXX#=@@@OX&O $=+X++@.%$+XXX+o=& .X-=.%&X+X=#@X+X%@",
" OO&X$o.*O.OOO$#X+X.*oO%O O=X@X+ oo%.XXX%$O@ O$-+@o.*@-=;##XOX*%",
"  Oo&%o. O.&  .+@%$o . . O$$&+$@.O. *&$$ .    #XO*  *o+X#XX& & o",
" O oooooooooo.o.oo.o...o.  oooOO . O . .o ...  OO.  ..  .o......",
".  ..o Ooo.o.  .. .&..oo.oo..  O. o%o. .ooooo&$$oOO . .O o&& ..o",
"o   .oO $+X@%    oO$#-=%X.o &.O.$-++#$OO..  X=-#-=oO.%O+ &XoOOO.",
"*.O& $OO $##oOO$O$%@+#=+XO&o $&+=#+@XX%&*o*O.@=@=@*Oo+*+X$@Xo* .",
"+X+#@X$$@+XXX$@=@+#X@+#&+&%$%##X#@+X++$+X&O*o.X+&OoO+#@X%o @%o.+",
"o %+oX@##$ OXo@+@#XX#+$o$.&=X$@@%#%+X@X#@@ $##$$.% %=X@&o* .*. +",
"&OOo &OX-#OO. &O%=++X$*..O%#=@&OOo.&%.X@O. @+-#Oo Oo%++o OO.oO .",
"oO ....&%%.O.   o&&oo.OO .O*o.o   .. . o.  o.o.*  .O oo&ooooo. .",
".  ..O o. . oo&&o.oooo...o.o. O*O   o$%.. o..o...o.oo. .o....&%o",
"&... OO . o.O=-+.  oo  %=&O   O @@$@X-XoOO&O o.o@%$$ O& . O.@XX#",
"..o.&* OoOo@*=@o**  *  X+ .  .% $+XX@-@o*%@o%$@$++=+.%o.%OO$XXXX",
"o+@%&* .@O%X+%$#.Oo%@X+#+X&*$%.@@XX@$X#X+X+++XXX@@#+X#&%+OOOX++%",
"X#X#$@o%X++X@@+#X&X#+++XXX%%#@O+X$$#X#XX##@&#XXX#X#X##@@=&&&+XXX",
"@#-XX=@#+X+#-==+@X+@@=+@X+#+$$O$%*&+-=@+@$o &#=#%X@ #$ $@--%.%+%",
"$&-$&.%X#XXX==#+.+o*&-+@-+--%.&..OoO==O *  **o-;*&&O%O.*&=+.O &O",
"o.&*  O.+@$&  .  $ O.Oo%+@$&o*    OOo.  ooOO %#$...    O.O*.O.. ",
" .   ..o....... .o  .o.... *O*OO o.oo..ooo..oo. . ....* o . O O ",
"o ... O*O. O*o+@&o..O o  .  Oo@$$  . O* o&$%o..o O .&&o O . .*O@",
"  o o O..O & @+-@#%O&@+o$O$O %X--$.O..*@@#;=&O& =&$X+#XO   ..+o=",
"$%  $OOO o$o@@@XXXXo$=#X#o+@+++=#=o %o%@XX##@$#$=##@%+++@O @ $#+",
"#+@$Xo.%%@+%XX++++X#X####X+X#X#X@@&$$oXX++$X#XX#XX#XX+XX@O%#&&X$",
"XXX#+@+X@++XXXXX=-#++@##X+#;#@X++@%#+XXXX+$@#++#@+X+#-===X-@##+@",
"$++X@@@%@++#@#X@==$@%@X@$@=-@@+XXX+X@+XXX+@+=%@=@XX++-;--==$=#@@"
};
