/* XPM */
static char *result[] = {
/* columns rows colors chars-per-pixel */
"64 64 116 2 ",
"   c white",
".  c gray20",
"X  c #A6C810",
"o  c black",
"O  c #A8C911",
"+  c #A3C510",
"@  c #A0C210",
"#  c gray19",
"$  c #88AD08",
"%  c #85AA09",
"&  c #A2C410",
"*  c #A4C710",
"=  c #83A906",
"-  c #8BAF0A",
";  c #323232",
":  c #A6C612",
">  c #A3C311",
",  c #A4C411",
"<  c #81A706",
"1  c #353534",
"2  c #9BBE11",
"3  c #9EC010",
"4  c gray9",
"5  c #AACB12",
"6  c #8DB20C",
"7  c #98BB0F",
"8  c #90B40C",
"9  c #92B60D",
"0  c #7EA506",
"q  c #96B90E",
"w  c #201F20",
"e  c #3C3C3C",
"r  c #7BA207",
"t  c #040506",
"y  c #F3F3F3",
"u  c #9EBCCA",
"i  c gray94",
"p  c gray17",
"a  c #94B80F",
"s  c #769E0A",
"d  c #969595",
"f  c #96B692",
"g  c #768C96",
"h  c #82A40C",
"j  c #5A6D0B",
"k  c #929292",
"l  c #D4780B",
"z  c #F8F8F8",
"x  c #0E0D0F",
"c  c #AFCF12",
"v  c #56690A",
"b  c #8B8B8B",
"n  c #71980A",
"m  c #494948",
"M  c #738B0E",
"N  c #364309",
"B  c #485B07",
"V  c #676767",
"C  c #F38709",
"Z  c #DF7D07",
"A  c #3E4C0B",
"S  c #64860A",
"D  c #689209",
"F  c #BB6E13",
"G  c #3A2106",
"H  c #B2B2B2",
"J  c #F08507",
"K  c #DADADA",
"L  c #FEFEFE",
"P  c #A56011",
"I  c #2E3616",
"U  c #5D730A",
"Y  c #647E09",
"T  c #50640A",
"R  c #4C6008",
"E  c #4C4C4C",
"W  c #343B1A",
"Q  c gray61",
"!  c #6D440D",
"~  c #455609",
"^  c #5F7908",
"/  c #9BB9BF",
"(  c #484848",
")  c #AAAAAA",
"_  c #2D3B05",
"`  c #242E09",
"'  c #E27E08",
"]  c #9CBABA",
"[  c #405208",
"{  c #EED0A7",
"}  c #F2B163",
"|  c #8AA70E",
" . c gray93",
".. c #7B7B7A",
"X. c #EABF88",
"o. c #E68109",
"O. c #727272",
"+. c gray74",
"@. c gray45",
"#. c #3B2106",
"$. c #B9B9B9",
"%. c #555555",
"&. c #86A289",
"*. c #1D1105",
"=. c #F4E7D1",
"-. c #F6E8D4",
";. c #BCBBBA",
":. c #E6A759",
">. c #9AB9B6",
",. c #747474",
"<. c #C1C1C1",
"1. c #CDB28E",
"2. c #C6873D",
"3. c #795223",
"4. c #5F360B",
"5. c #E8A75A",
/* pixels */
"@ 8 @ * + @ & O X 3 - 6 q a 6 & O : X : 8 8 + X + + > + 7 9 8 O 5 * * : 7 @ 5 2 - $ - 2 X : > * 2 : @ - 6 9 2 a - 3 : , @ > X * ",
"@ & , + : O + @ @ 3 3 @ : & & > : X X O O @ @ , @ @ > & & * + + * * + X c 5 : * & , , X X + > : + : : & , + O O @ > > @ @ & > @ ",
"@ + + , * O & 8 7 7 2 X + + * + : O : 3 q - - 9 3 @ > M A [ [ A A A A M : + O 3 : , , @ 7 q 9 a a 2 + + + 3 O O X 2 & , + & 2 6 ",
"6 @ @ 3 2 O X a % D % , 8 > > 3 X : - s < 0 0 - @ O O T o o o o o o o B 8 9 8 % > $ q 6 D 0 % < n s @ $ + q q 7 - - 3 + 8 h D S ",
"< 9 q 9 $ q 6 $ 0 r $ $ 0 7 7 6 5 O , 0 r r < M [ ~ [ W p p p p p p p W N N N ^ 6 0 - % n r = < s s % r - $ % < < = 7 a s s n n ",
"$ $ < = = - % 0 r r $ - 0 < % < 2 q 7 = r r 6 T o o o w m ( ( ( ( ( m w o o o ~ $ $ - = = = $ = 0 0 $ = 0 < = 0 r = $ < = < = % ",
"6 % = < % $ $ r s 0 $ % % = % = $ < % % - Y _ I p p p . e e e e e e e . p p p I N ^ - < 0 6 8 % 9 < - $ < % < < $ 2 & - - = $ $ ",
"9 9 8 % 2 9 2 D S < - = % s $ s s $ r $ q R o w m ( m e ; . . . . . ; e m ( m w o ~ - 6 D D % % 7 - + 6 D n S h a c O * 5 q @ 8 ",
": * O 2 X & : s D $ 9 8 7 - 7 6 n = s S A W p . e e e 1 . . . . . . . 1 e e e . p W N S = D < @ 3 & O 2 6 0 s 6 : 5 5 + & X : > ",
", O O : * + + 2 2 > O O : : & + a 8 3 v o w m e . . . . . . . . . . . . . . . e m w o v @ 9 @ c X * * O * @ > 2 @ > + @ @ @ , , ",
"& O O + * 5 * @ & : + O + : & 3 @ @ + v o w e @.H H H @.# . . . . . # ,.H H H @.e w o v + @ @ @ > @ @ @ > : : : : , X O & @ 2 2 ",
"2 * + & X 5 X + , * , * 3 a 8 a > : : v o 4 # d       Q # . . . . . # Q       d # 4 o R * & > 2 9 q 6 - 3 5 2 : 3 : O , 9 8 % a ",
"a : + + O O X & 2 : 3 O 7 $ q , c n A I w V H K       K H O.; . # O.H K       K H V w I A S 2 7 9 - % < $ - h + % > O O - = 0 = ",
"6 q 6 + * & : 8 7 : $ @ 9 < - q c j o 4 ; d   L     L     Q # 1 # Q     L     L   d ; 4 o ~ - < = = = = < < < - 0 q X @ q < = 0 ",
"0 % < 6 q 3 7 % 9 6 r % < < r 0 6 v o 4 # d       <...+.  K H H H K   +...<.      d # 4 o B % % q $ - 3 < 9 @ 9 8 s 0 9 3 8 < 9 ",
"a 3 8 7 3 > a 0 $ = < % 6 8 6 % % [ o 4 # d       Q p d               k p Q       d # 4 o v 8 $ O 2 3 : 9 : * 5 2 s % 3 5 + - O ",
": , @ 5 * : * & 9 8 8 q @ : & : O R o 4 # d       Q # d               d # Q       d # 4 o v q 9 & @ > * * X X 5 & > O > 5 : @ * ",
", , + * * + , @ @ @ & + : @ 3 & : v o 4 # k   L   Q # d   L L L L L   d # Q   L   d # 4 o v X > + * & , @ + 5 O & * * X 5 O O + ",
"@ : & : & * 5 5 : + * O 5 9 < a 7 T o 4 . %...$.  1.P 2.} } } } } } } 2.P 1.  $...%.; 4 o v * > > O * > 9 % < 9 X * * : X 5 , 9 ",
"@ , 3 , @ O 5 > 2 O + + : - h < 6 B o 4 1 # p k   X.Z o.J J J J J J J ' Z X.  k p # 1 4 o T 9 @ 6 * 2 - $ n D a > * : > & 3 + 7 ",
"2 q @ + 9 O O O 3 2 a @ 9 - % r 6 B o 4 1 . # k   -.{ :.' o.J J J o.Z :.{ =.  k # . 1 4 o B $ 9 6 8 $ = = $ = < % O * 9 @ 2 $ $ ",
"% - - 6 < q 2 7 - 0 = 9 < 0 0 0 $ B o 4 1 . # k       X.l o.J J J o.l X.      k # . 1 4 o ~ < 0 < = < 0 < < 0 0 $ q 8 < 9 9 < 0 ",
"% - $ < < $ 0 = % 0 0 < 0 = 0 U _ ` w p . . ; %...;.  -.{ 5.' ' ' :.{ -.  ;...%.; . . p w ` _ ^ 8 $ % 9 < - 7 6 $ s r s r 0 r r ",
"O + + < 6 6 n s % % < % % - $ [ o 4 1 . . . . # p d       X.l Z l X.      d p # . . . . 1 4 o R 5 8 a : 8 @ X , : % 2 r = - n 0 ",
"> 5 O 2 : + q 9 $ $ $ 8 3 & + v o 4 1 . . . . . # d       =.{ { { =.      d # . . . . . 1 4 o T O 3 3 X , X X c O X 5 X 3 3 a 3 ",
": 5 X : * X 5 5 2 2 3 > > > + j o 4 1 . . . . 1 ; d                       d ; 1 . . . . 1 4 o v + + , + + * O O , : 5 * + + : @ ",
"& O + @ * + X * * , : O c M N W # # . . . . # O.$.K                       K $.O.# . . . . ; # W N M : + 3 @ X X : * O X * O O 2 ",
"$ 9 9 % 2 a 2 3 & * + , 5 T o w m e . . . 1 ; d                               d ; 1 . . ; e m w o j @ 7 - % % , X : * + + , X $ ",
"8 = % < % r % $ @ : 3 M N I # 1 e 1 . . # @.;.K                               K +.,.# . . 1 e 1 # W _ ^ % < 0 6 $ : X 7 > 7 9 8 ",
"a < = < = = $ 2 @ 9 6 j o w m e ; . . . # d                                       d # . . . ; e m w o B < 0 = r % @ 7 % 7 3 7 3 ",
"q % % 9 8 & 3 O c M _ W # 1 e 1 . . . . # k                                       d # . . . . 1 e 1 # I _ U $ % r = 9 6 X @ : 5 ",
"O 7 2 : O : : 5 c j o w m e ; . . . . 1 . d                                       d . 1 . . . . ; e m w o R - s S 6 O 5 : + 5 c ",
"+ 7 & : X : : M N W # 1 e 1 . . . . # O.+.K                                       K +.@.# . . . . 1 e 1 # I _ S 9 > * + @ & * , ",
"@ & + + : O : j o w m e ; . . . . . # k                                               k # . . . . . ; e m w o U : @ & @ > + @ 3 ",
"2 > + @ + M N I # 1 e 1 . . . . . . # k                                               k # . . . . . . 1 e 1 # W N Y 2 , & q - s ",
"9 7 q 2 | v o w m e ; ; ; . . . . . # k                                               k # . . . . ; ; ; ; e ( w o [ 9 2 % s S S ",
"= a - Y ` I ; 1 e 1 1 w x w . . . . # k                                               k # . . . . w x w 1 1 e 1 # I N Y r r r r ",
"< - - R o w m e . ; . w o 4 . . . . # k                                               k # . . . . 4 o w . ; ; e m w o B = 0 0 < ",
"6 q - T o 4 e 1 1 w x N Y A x w . . # k                                               k # . . w x N S N x w . 1 e 4 o R - < a 6 ",
"+ 5 X U o 4 . ; . w o R c j o 4 . . # k                                               k # . 1 4 o R X B o w . ; . 4 o j + $ O q ",
"X O c U o 4 1 w x A M h O j o 4 . . # b z z                                       z z b # . 1 4 o j O | M N x w 1 4 o U O 2 : 3 ",
": 5 5 U o 4 . w o B * > & j o 4 . . # b y z L L                                   z i b # . 1 4 o j O O O B o w . 4 o j X > + > ",
"+ * 5 U o t x A S h @ 3 * j o 4 . . # b y y y z                               z y y y b # . 1 4 o j c : + h M N x t o j O , + @ ",
"@ X O ^ t t o B 7 - < 6 2 j o 4 . . # b  . .i z                               z i  . .b # . 1 4 o B > O , 2 5 ~ o t t U 5 5 5 + ",
"5 > : | M Y M | > 8 r 0 3 j o 4 . . ; E V ) i z                               z i ) V E ; . . 4 o v 5 O 2 6 O n ^ Y Y n @ c X @ ",
"- $ $ < 6 $ 9 9 6 $ < = $ R o 4 ; ; . ; p b y z                               z y b p ; . ; ; 4 o U : : $ 0 6 $ q & + 6 7 > @ - ",
"3 & 7 - 2 % - 0 r 8 > * - | Y A x w . . # b y y y z                       z y y y b # . . w x A M h : 7 r < 6 2 @ c O > 5 , , 6 ",
"2 5 X 2 : 2 : < D r : O @ * + j o 4 . . # b  . .i z                       z i  . .b # . . 4 o j 5 * O 3 a $ - 2 : 5 5 > > X : @ ",
"3 5 * , : : > 2 a q > O + + : j o 4 . . ; E V ) y y y z               z y y y ) V E ; . . 4 o j 5 * : O : 3 3 2 3 > > @ 3 > + > ",
"+ X * & + 5 : @ > * & : @ 2 7 j t 4 ; ; . ; p b  . .i z L             z i  . .b p ; . ; ; 4 t j + @ > @ @ + + & @ > & @ 3 7 q 2 ",
"3 , + + * 5 O X , * @ > + r n n M ~ x w . . ; E V ) y y y y y y y y y y y ) V E ; . . w x ~ M | 8 a 8 9 + : 3 : > * O @ 6 < < r ",
"> @ 3 @ 3 5 X X @ X 3 6 + r - 3 c U o 4 ; ; . ; p b  . .i i i i i i i  . .b p ; . ; ; 4 o j 9 8 $ $ r $ 3 q 3 > 7 O O a = < < < ",
"2 - - 9 2 O : @ 8 + q = - 8 6 < @ - M A x w . . ; E V ) y i i i i i y ) V E ; . . w x A Y n = = $ $ r = < < q q - X O * = % % 6 ",
"% r h 0 6 - 2 a = $ % < % $ % 0 % q $ B o 4 1 . . ; p b  . . . . . . .b # ; . . 1 4 o R = 0 0 0 < = 0 < r r - $ r 9 q 7 $ < < = ",
"$ r n h < s $ 0 = < = 0 n n s % 6 U ` 4 o 4 . . . . . E V V V V V V V E ; . . . . 4 o 4 ` v s s 9 $ 6 @ = 8 & 9 $ D n a 3 a $ a ",
"8 a s 6 7 3 a % r < = = r n r % 7 B o t t w 1 1 1 1 1 . # # # # # # # . 1 1 1 1 1 w t t o R D D : 7 2 O 7 * * O 7 s % @ 5 * 7 O ",
"3 @ 2 5 * : X @ - 6 8 7 > @ + S I ! P P P F F F F F F 3.; . . . . . ; 3.F F F F F F P P P ! ` ^ * + , * + X O 5 + + 5 + 5 : + X ",
"+ , + * * + + @ @ @ > + + @ 3 j o ! C C C J C C C C C P # ; ; ; # ; # P C C C C C C C C C ! o v @ > , + > + 5 O & * * : 5 O 5 : ",
"@ + > + & * 5 5 X : : O c S ` ! P F Z Z Z Z Z Z Z Z ' ! x x x x x x x ! ' ' Z Z Z Z Z Z ' F P ! ` M O > 7 7 3 * X * * : : c X 6 ",
"& , @ + @ : 5 : + X & 3 * R o 4.l l l l l l l l l l l ! o t t t t o o ! l l l l l l l l l l l 4.o v 9 $ $ < $ + : X X > > 6 2 s ",
"8 q & + a O O 5 : 3 8 2 8 R o *.#.#.#.G G G G G G G #.*.o N Y ^ ^ _ o *.G G #.G G G G G #.G G *.o B 0 - 8 % = $ 8 O : 8 @ 9 = = ",
"0 $ - 8 % 3 3 7 q 6 $ 9 % R t t t t t t t t t t t t t t t ~ % % - B t t t t t t t t t t t t t t t B < | % = 0 0 - @ a % 7 q % - ",
"f f f f f f f f f f f f f &.g g g g g g g g g g g g g g g &.f f f &.g g g g g g g g g g g g g g g &.f f f f f f f f f f f f f f ",
"u / ] ] ] ] ] ] ] / u / u u u u u u u u u u u u u u u u u u u u u u u u u u u u u u u u u u u u u u u u u / / / / / / ] >.>.>.>."
};
