/* XPM */
static char *result[] = {
/* columns rows colors chars-per-pixel */
"64 64 49 1 ",
"  c #6596AD",
". c #5B8B9F",
"X c #6496AD",
"o c #6495AC",
"O c #6292A8",
"+ c #5E5D5D",
"@ c #686768",
"# c #5D8DA3",
"$ c #6597AE",
"% c #5B5857",
"& c #5F90A5",
"* c #78A8BD",
"= c #58889C",
"- c #7EA4B7",
"; c #606263",
": c #6D9FB6",
"> c #6D9BB1",
", c #AEACAC",
"< c #282627",
"1 c #72A4BA",
"2 c #B2B3B4",
"3 c #444344",
"4 c #6899B0",
"5 c #5E7680",
"6 c #959798",
"7 c #72A1B7",
"8 c #323031",
"9 c #676463",
"0 c #626A6E",
"q c #9CA9AF",
"w c gray43",
"e c #868686",
"r c #5B8496",
"t c #393939",
"y c #A1A2A2",
"u c gray72",
"i c #83ADC0",
"p c #717374",
"a c #515050",
"s c #627B86",
"d c #5B6F78",
"f c #A1AEB4",
"g c #7C7E7E",
"h c #8C8C8E",
"j c #68808A",
"k c #9896BA",
"l c #AFADEA",
"z c #B4B1EA",
"x c #C3C1FF",
/* pixels */
"88ttapw@;9@+++dsdddppd5gpw;+++++++++%3a++++++++++++++9wpppddw3t8",
"8+;ge666666ep%.17112f1q,y66666666666h%g66666666666666666yq1f,;+t",
"<py,,2222f-,,y,2f2f22f22,2,,,,,,,,,,,e6,,,,,,,,,,,,,,,,,22f22zh8",
"8hu22fqff-7qffqqqqqffqqqqqqqqqqqqqqqye6uqqqqqqqqqqqqqqqqqqqyyxk8",
"ayuy6==============::===============raeu#=================.d@lkt",
"3yu->>>>>>>>>>>>>>>4$OOOOOOOOOOOOOOo.%eu7$OOOOOOOOOOOOOOO&#d9lkt",
"362>>---------111114o$  $$$$$$$$$$ 4&%eu-: 44$$$ $$$$   $O#d+lkt",
"ay2>:i--iiiii- ..&$           oo  o$&%eu-:o:1    Xoo    $O#d+lkt",
"36u77i**ii*1:>O.&O            oo   $&%eu-:o>:   X$>4oOOOO&#d+lkt",
"86u-17iii*7#=... $                 4&;hu-:oXo   o4*>o.....#d+zkt",
"<hu-*iii*:&#..&oo                  $&%eu-:o     X$4$o.....#d9Ost",
"<eu-*ii*7 =.##O$                   4&%eu-:o       o o#....#5@s03",
"<hu1*i*7#...#                      4&%eu-:o           &...#59+9t",
"<hu11*>o...&O                      o.%eu-:o        XX O&#.#59+;t",
"<hu11-O=...o$                      &r%eu-:o            $#.#59++8",
"<eu11-O..&oo  Xo                  $&r%eu-:o             o&.59+9t",
"8hu11-O.#O$   44                 oO&r%eu-:o             $o&59+;t",
"ty2*1-O.     o:7$         $     $O=.r+eu-:X          $   o4s9+%8",
"ay2*1-O.o     44         o&o    &#.O#%eu-:o         X&O  oO59++8",
"%y2*1-O.    X Xo        $O#o  Xo...o&%eu-:o         o#O  O&59+;t",
"%y211-O.                     $&.=#$&r%eu-:o          oX  o$s9+%<",
"+y2*1-O.                    oO#.#&O#r%eu-:o              o4s9+%8",
"@y2i*-O.                   $o...$o=#r%eu-:o             Xo4s9+%t",
"+y2*1- &                  $&#.#O###d0whu-:X             Xo4s9+%t",
"+y2*1-4o  $              oo#..&O.=r09g62-:               o4s9+%t",
"@y2*1-4Oo4>$            $O...o&=&s%we2f**:o             Xo4s9+%t",
"wy2-1-4O $4         oOo O#.&&&#=5d@hyqi*:4X              o4s9+%8",
"wy2*1-4O  X         o&O ...oo=..+9gy2777$o               o4s9++8",
"w,2*1-4O             $&..#O#.&5;we,--1:$$                  &r++8",
"@,2*1-4O            oo#.##O.=rd9e6f-774o      oOX        o$.j++8",
"@,2i*-4O           $o...o&=#r%@g,f:17oo      $O#o    $   o45+++8",
"@,2i*-o&           &#.#O##.50weyii1:4         oOo   o&O  o$.s++8",
"@,2i*-o#           #..&O.==09g62*174OX X  oXXX   XX o#O Xo O.++8",
"@,2*1-o#      oO  $#. &=&s%wg,q71:o     $oOo$    $$$$  $  $jw++8",
"9,2-7-o#      oo oO&&O#=sd@e6y>$4o&OOOOOO&#&OOOOOOOOOOOOO&Ojw++8",
";,2-7-o#        $O=OO=.=+@g,2=.............................jw++t",
";,2-7-o#        #&o#.&5;pw+@@;;;;;;;;;;;;;;;;;;;;;000000000@;++t",
"+,2-7-o#      oO#&o.rrd9eg000000000000000000000000pppppppp09+++t",
"3,277-o#     $#.$O=&r%wg,f*************************1*1*1*:r5@+%<",
"a,2*1-O.    o&&O&#.5dweyii717>>>>>>>>>>>>>>>>>>>>>>>>>>>>$&5++%<",
"+,2*1-&=X   O.OX.=.;9gy2**77:ooooooooooooooooooooooooXoXoo$5%+%8",
"a,2*:> OX $##$&.&s+wg,q11114 O7i1:o                     $O.sd++8",
"a,2*:$ X oO&&O#=s59e6f-7:::$$>7*7>o      XXX  XXXXXXXXXX O.r5++8",
"3,2*:oX $O= Or..+@g,2:11 ooo4i7Ooo     XXXXX  XXX XXXXXX O.r5++8",
"tyu7$&&&&#.&#.50wey--1:4  o71>4X        X  X    XXXXXXXX O.r5++8",
"t62o.rrrrrrrr=0+g62-:74o $$**oo        XXXXXX    X XXXXX O.r5++8",
"th6@+++++;;+++pe,q717X  O>*4o     $ X  XXXXX  XoXXXXXXXX O..r++t",
"t6y@+;;;;9@9;%peq-7:>XX ::74o    oOo  XXX XX X44$XXXXXXX O..=++t",
"36u@+@@@@wp@9+wg:114o o *7O     $O.O$X       o4:$X XXXXX O..r++t",
"ay2@+@@@@@w@9%h,7:$  O7*4$       ooo    X  X X$$ XXXXXXX&..#=++t",
"+y2@+@@@@@@@@%hf7>oX$47* o    XX     X  XXXXXXXoXXXXXXoX#..rs++t",
"w,2@+@@@@@@@9%s$7:oo4i:O   X      XX X  XXXXX    XXoXo $#.#5;++t",
"w,2@+@@@@@@@@;05 4oo4i1:$X     X X       XXXX XXXXXXX O&..#sw+%8",
"w,2@+@@@w@@@@@++&o o4i*1$o XX  XX XXXXXXXoXXXXXXXXXooX&=...jp+%<",
"p669+@@@@@@@@@@0::o  4$$$  OO XXXXXXXXX           $&.#....&jp+a<",
"pyy@;@@@@@@@@@9@7:o oOOOOo oOXXXXXoXoooXOOOOOOOOOOO#.==..=ssp+a<",
"p,2p9@@@@@@@@@+;::o O....&$             #............r=.#r9wp+a<",
"a6y@+@@@@@@@@@;;7:o oO#..###############.............=.#509wp+a<",
"3h69+@@@@@@@@@+;>>OOo &###....==......==...........rr===w9@pp+a<",
"8pe;%++++++++++;XX##O17:111$O#####################&d+wwwgggee+%8",
"t@@9;;;;;;;;;;++ss555j#ojjjs55555555555555555555555;+9@9wwwpp@+8",
"t+a@@@@@@@@@@@;+%%%%%%5=%%%%%%%%%%%%%%%%%%%%%%%%%%%%++%%%%%%%p;8",
"<+;aa3aaaaa333aaaaa333333333333333333333%%%3333333333333333aa%3<",
"<33tt888888<<<<8888<<<<<<<<<<<<<<<<<<<<<88t<<<<<<<<<<<<<<<<888<<"
};
