/* XPM */
static char *_a85e4f721e14767a0497355b3f3455b35poqvoMlfJVji7B[] = {
/* columns rows colors chars-per-pixel */
"32 32 46 1 ",
"  c gray32",
". c #767676",
"X c #7E7E7E",
"o c #898989",
"O c #6A6A6A",
"+ c gray35",
"@ c #434343",
"# c #316464",
"$ c #6D93A4",
"% c #A0A0A0",
"& c #7DA3B4",
"* c gray64",
"= c #888888",
"- c #979797",
"; c #909090",
": c #585858",
"> c gray68",
", c gray67",
"< c #838383",
"1 c #7399AA",
"2 c gray66",
"3 c #989898",
"4 c #A3A3D6",
"5 c #A7A7A7",
"6 c #698FA0",
"7 c gray42",
"8 c #678D9E",
"9 c gray63",
"0 c DimGray",
"q c #6D6D6D",
"w c gray45",
"e c #5D5D5D",
"r c gray47",
"t c #565656",
"y c #7FA5B6",
"u c #808080",
"i c #275A5A",
"p c #686868",
"a c gray44",
"s c gray46",
"d c #656565",
"f c #668C9D",
"g c #939393",
"h c gray49",
"j c #494949",
"k c white",
/* pixels */
" .XoO+@#$%&**=----;;-----*****:@",
"->,-<1&222222222222322222222224@",
"*56&1&&&&111$$$$$$$7&88888888;4@",
"9&&&&&&$1&1$$$$$$$$7&6$$$$68824@",
"0%&&88$1&1$$$$$$$$$q&$1111$8824+",
"@2&88$1&1$$$$$$$$$8w&$$$$$$$8;8e",
"@>&8$1&1$$$$$$$$$$8r&$$$$$$$888+",
"t>&$1&1$$$$$$$$$$$8r&$$$$$$$888+",
"62&$y1$$$$$$$$$$$$8r&$$$$$$$$88+",
"12&1&$$$$$$$$$$$$86r&$$$$$$$$87+",
"&281&$$$$$$$$$$$886r&$$$$$$$$87@",
"*211&$$$$$$$$$$8866u&$$$$$$$$87i",
"%%&1&$$$$$$$$$8866p&&$$$$$$$$88i",
";2&1&$$$$$$$$8866p&&&$$$$$$$$88@",
"-211&$$$$$$$8866p&&&$$$$$$$$$88@",
"->&1&$$$$$$8866p&&&$$$$$$$$$$$7@",
"->&1&$$$$$8866p&&&$$$$$$$$$$$$7@",
"*2&1&$$$$$866p1&&688888888888$$@",
"=&&1&$$$$886p816666666666666668+",
"a&&1&$$$886p167777777777777asp7+",
"p2&11$$886p&&&&&&&&&&&&&&&&&&$7+",
"p&&1$8886p&&&$$1&111111111111$7+",
"+&&$$866p&&&$1&11$$$$$$$$$$$$$$+",
"+%&6$86p6&&$1&1$$$$$$$$$$$$$$$$+",
"+27p77p7&&8$y1$$$$$$$$$$$$$$$$$+",
"d>77777&&&$11$$$$$$$$$$$$$$$$$$@",
"->777771&1$y1$$$$$$$$$$$$$$$$f7@",
"*577777r1&$$$$$$$$$$$$$$$$$$867@",
"9g777777&&$$88$$$$$$88888888867@",
"hg777777&&$&11888888888886666p7+",
"+7777777688$$$$$ffffffff8877777+",
"+@+++++++++@@@+++++++++++++@j@@+"
};
